<?xml version="1.0" encoding="UTF-8" standalone="no"?><svg xmlns="http://www.w3.org/2000/svg" xmlns:xlink="http://www.w3.org/1999/xlink" contentStyleType="text/css" height="1376px" preserveAspectRatio="none" style="width:746px;height:1376px;background:#FFFFFF;" version="1.1" viewBox="0 0 746 1376" width="746px" zoomAndPan="magnify"><defs/><g><text fill="#000000" font-family="sans-serif" font-size="14" font-weight="bold" lengthAdjust="spacing" textLength="136" x="301" y="27.9951">Player game loop</text><rect fill="#FFFFFF" height="1184.5859" style="stroke:#181818;stroke-width:1.0;" width="10" x="140" y="147.8594"/><rect fill="#00FF00" height="385.0625" style="stroke:#181818;stroke-width:1.0;" width="10" x="150" y="852.1172"/><rect fill="#FFFFFF" height="14" style="stroke:#181818;stroke-width:1.0;" width="10" x="150" y="852.1172"/><rect fill="#FF0000" height="99.2656" style="stroke:#181818;stroke-width:1.0;" width="10" x="150" y="923.25"/><rect fill="#FF0000" height="185.5313" style="stroke:#181818;stroke-width:1.0;" width="10" x="150" y="1051.6484"/><rect fill="#FFFFFF" height="14" style="stroke:#181818;stroke-width:1.0;" width="10" x="155" y="1109.9141"/><rect fill="#FFFFFF" height="1098.3203" style="stroke:#181818;stroke-width:1.0;" width="10" x="232" y="234.125"/><rect fill="#00FF00" height="401.1953" style="stroke:#181818;stroke-width:1.0;" width="10" x="242" y="492.9219"/><rect fill="#FFFFFF" height="14" style="stroke:#181818;stroke-width:1.0;" width="10" x="242" y="492.9219"/><rect fill="#FFFFFF" height="14" style="stroke:#181818;stroke-width:1.0;" width="10" x="242" y="808.9844"/><rect fill="#00FF00" height="128.2656" style="stroke:#181818;stroke-width:1.0;" width="10" x="242" y="1195.1797"/><rect fill="#FFFFFF" height="14" style="stroke:#181818;stroke-width:1.0;" width="10" x="242" y="1195.1797"/><rect fill="#FFFFFF" height="14" style="stroke:#181818;stroke-width:1.0;" width="10" x="242" y="1309.4453"/><rect fill="#FFFFFF" height="1141.4531" style="stroke:#181818;stroke-width:1.0;" width="10" x="375" y="190.9922"/><rect fill="#FFFFFF" height="14" style="stroke:#181818;stroke-width:1.0;" width="10" x="380" y="306.3906"/><rect fill="#FFFFFF" height="14" style="stroke:#181818;stroke-width:1.0;" width="10" x="380" y="392.6563"/><rect fill="#FFFFFF" height="99.2656" style="stroke:#181818;stroke-width:1.0;" width="10" x="380" y="579.1875"/><rect fill="#FFFFFF" height="143.3984" style="stroke:#181818;stroke-width:1.0;" width="10" x="380" y="750.7188"/><rect fill="#FFFFFF" height="1055.1875" style="stroke:#181818;stroke-width:1.0;" width="10" x="548" y="277.2578"/><rect fill="#FFFFFF" height="100.2656" style="stroke:#181818;stroke-width:1.0;" width="10" x="553" y="779.8516"/><rect fill="#FFFFFF" height="56.1328" style="stroke:#181818;stroke-width:1.0;" width="10" x="553" y="952.3828"/><rect fill="#FFFFFF" height="142.3984" style="stroke:#181818;stroke-width:1.0;" width="10" x="553" y="1080.7813"/><rect fill="#FFFFFF" height="968.9219" style="stroke:#181818;stroke-width:1.0;" width="10" x="657" y="363.5234"/><rect fill="#FFFFFF" height="56.1328" style="stroke:#181818;stroke-width:1.0;" width="10" x="662" y="608.3203"/><line style="stroke:#181818;stroke-width:0.5;stroke-dasharray:5.0,5.0;" x1="145" x2="145" y1="73.5938" y2="1341.4453"/><line style="stroke:#181818;stroke-width:0.5;stroke-dasharray:5.0,5.0;" x1="237" x2="237" y1="73.5938" y2="1341.4453"/><line style="stroke:#181818;stroke-width:0.5;stroke-dasharray:5.0,5.0;" x1="380" x2="380" y1="73.5938" y2="1341.4453"/><line style="stroke:#181818;stroke-width:0.5;stroke-dasharray:5.0,5.0;" x1="552.5" x2="552.5" y1="73.5938" y2="1341.4453"/><line style="stroke:#181818;stroke-width:0.5;stroke-dasharray:5.0,5.0;" x1="662" x2="662" y1="73.5938" y2="1341.4453"/><rect fill="#E2E2F0" height="30.2969" rx="2.5" ry="2.5" style="stroke:#181818;stroke-width:0.5;" width="102" x="94" y="42.2969"/><text fill="#000000" font-family="sans-serif" font-size="14" lengthAdjust="spacing" textLength="88" x="101" y="62.292">InputHandler</text><rect fill="#E2E2F0" height="30.2969" rx="2.5" ry="2.5" style="stroke:#181818;stroke-width:0.5;" width="102" x="94" y="1340.4453"/><text fill="#000000" font-family="sans-serif" font-size="14" lengthAdjust="spacing" textLength="88" x="101" y="1360.4404">InputHandler</text><rect fill="#E2E2F0" height="30.2969" rx="2.5" ry="2.5" style="stroke:#181818;stroke-width:0.5;" width="62" x="206" y="42.2969"/><text fill="#000000" font-family="sans-serif" font-size="14" lengthAdjust="spacing" textLength="48" x="213" y="62.292">Engine</text><rect fill="#E2E2F0" height="30.2969" rx="2.5" ry="2.5" style="stroke:#181818;stroke-width:0.5;" width="62" x="206" y="1340.4453"/><text fill="#000000" font-family="sans-serif" font-size="14" lengthAdjust="spacing" textLength="48" x="213" y="1360.4404">Engine</text><rect fill="#E2E2F0" height="30.2969" rx="2.5" ry="2.5" style="stroke:#181818;stroke-width:0.5;" width="84" x="338" y="42.2969"/><text fill="#000000" font-family="sans-serif" font-size="14" lengthAdjust="spacing" textLength="70" x="345" y="62.292">Scheduler</text><rect fill="#E2E2F0" height="30.2969" rx="2.5" ry="2.5" style="stroke:#181818;stroke-width:0.5;" width="84" x="338" y="1340.4453"/><text fill="#000000" font-family="sans-serif" font-size="14" lengthAdjust="spacing" textLength="70" x="345" y="1360.4404">Scheduler</text><rect fill="#E2E2F0" height="30.2969" rx="2.5" ry="2.5" style="stroke:#181818;stroke-width:0.5;" width="55" x="525.5" y="42.2969"/><text fill="#000000" font-family="sans-serif" font-size="14" lengthAdjust="spacing" textLength="41" x="532.5" y="62.292">Player</text><rect fill="#E2E2F0" height="30.2969" rx="2.5" ry="2.5" style="stroke:#181818;stroke-width:0.5;" width="55" x="525.5" y="1340.4453"/><text fill="#000000" font-family="sans-serif" font-size="14" lengthAdjust="spacing" textLength="41" x="532.5" y="1360.4404">Player</text><rect fill="#E2E2F0" height="30.2969" rx="2.5" ry="2.5" style="stroke:#181818;stroke-width:0.5;" width="44" x="640" y="42.2969"/><text fill="#000000" font-family="sans-serif" font-size="14" lengthAdjust="spacing" textLength="30" x="647" y="62.292">Mob</text><rect fill="#E2E2F0" height="30.2969" rx="2.5" ry="2.5" style="stroke:#181818;stroke-width:0.5;" width="44" x="640" y="1340.4453"/><text fill="#000000" font-family="sans-serif" font-size="14" lengthAdjust="spacing" textLength="30" x="647" y="1360.4404">Mob</text><rect fill="#FFFFFF" height="1184.5859" style="stroke:#181818;stroke-width:1.0;" width="10" x="140" y="147.8594"/><rect fill="#00FF00" height="385.0625" style="stroke:#181818;stroke-width:1.0;" width="10" x="150" y="852.1172"/><rect fill="#FFFFFF" height="14" style="stroke:#181818;stroke-width:1.0;" width="10" x="150" y="852.1172"/><rect fill="#FF0000" height="99.2656" style="stroke:#181818;stroke-width:1.0;" width="10" x="150" y="923.25"/><rect fill="#FF0000" height="185.5313" style="stroke:#181818;stroke-width:1.0;" width="10" x="150" y="1051.6484"/><rect fill="#FFFFFF" height="14" style="stroke:#181818;stroke-width:1.0;" width="10" x="155" y="1109.9141"/><rect fill="#FFFFFF" height="1098.3203" style="stroke:#181818;stroke-width:1.0;" width="10" x="232" y="234.125"/><rect fill="#00FF00" height="401.1953" style="stroke:#181818;stroke-width:1.0;" width="10" x="242" y="492.9219"/><rect fill="#FFFFFF" height="14" style="stroke:#181818;stroke-width:1.0;" width="10" x="242" y="492.9219"/><rect fill="#FFFFFF" height="14" style="stroke:#181818;stroke-width:1.0;" width="10" x="242" y="808.9844"/><rect fill="#00FF00" height="128.2656" style="stroke:#181818;stroke-width:1.0;" width="10" x="242" y="1195.1797"/><rect fill="#FFFFFF" height="14" style="stroke:#181818;stroke-width:1.0;" width="10" x="242" y="1195.1797"/><rect fill="#FFFFFF" height="14" style="stroke:#181818;stroke-width:1.0;" width="10" x="242" y="1309.4453"/><rect fill="#FFFFFF" height="1141.4531" style="stroke:#181818;stroke-width:1.0;" width="10" x="375" y="190.9922"/><rect fill="#FFFFFF" height="14" style="stroke:#181818;stroke-width:1.0;" width="10" x="380" y="306.3906"/><rect fill="#FFFFFF" height="14" style="stroke:#181818;stroke-width:1.0;" width="10" x="380" y="392.6563"/><rect fill="#FFFFFF" height="99.2656" style="stroke:#181818;stroke-width:1.0;" width="10" x="380" y="579.1875"/><rect fill="#FFFFFF" height="143.3984" style="stroke:#181818;stroke-width:1.0;" width="10" x="380" y="750.7188"/><rect fill="#FFFFFF" height="1055.1875" style="stroke:#181818;stroke-width:1.0;" width="10" x="548" y="277.2578"/><rect fill="#FFFFFF" height="100.2656" style="stroke:#181818;stroke-width:1.0;" width="10" x="553" y="779.8516"/><rect fill="#FFFFFF" height="56.1328" style="stroke:#181818;stroke-width:1.0;" width="10" x="553" y="952.3828"/><rect fill="#FFFFFF" height="142.3984" style="stroke:#181818;stroke-width:1.0;" width="10" x="553" y="1080.7813"/><rect fill="#FFFFFF" height="968.9219" style="stroke:#181818;stroke-width:1.0;" width="10" x="657" y="363.5234"/><rect fill="#FFFFFF" height="56.1328" style="stroke:#181818;stroke-width:1.0;" width="10" x="662" y="608.3203"/><rect fill="#EEEEEE" height="3" style="stroke:#EEEEEE;stroke-width:1.0;" width="739" x="0" y="104.1602"/><line style="stroke:#000000;stroke-width:1.0;" x1="0" x2="739" y1="104.1602" y2="104.1602"/><line style="stroke:#000000;stroke-width:1.0;" x1="0" x2="739" y1="107.1602" y2="107.1602"/><rect fill="#EEEEEE" height="23.1328" style="stroke:#000000;stroke-width:2.0;" width="108" x="315.5" y="93.5938"/><text fill="#000000" font-family="sans-serif" font-size="13" font-weight="bold" lengthAdjust="spacing" textLength="89" x="321.5" y="109.6606">Initialization</text><polygon fill="#181818" points="128,143.8594,138,147.8594,128,151.8594,132,147.8594" style="stroke:#181818;stroke-width:1.0;"/><line style="stroke:#181818;stroke-width:1.0;" x1="0" x2="134" y1="147.8594" y2="147.8594"/><text fill="#000000" font-family="sans-serif" font-size="13" lengthAdjust="spacing" textLength="121" x="7" y="142.7935">new InputHandler()</text><polygon fill="#181818" points="11,157.8594,1,161.8594,11,165.8594,7,161.8594" style="stroke:#181818;stroke-width:1.0;"/><line style="stroke:#181818;stroke-width:1.0;stroke-dasharray:2.0,2.0;" x1="5" x2="139" y1="161.8594" y2="161.8594"/><polygon fill="#181818" points="363,186.9922,373,190.9922,363,194.9922,367,190.9922" style="stroke:#181818;stroke-width:1.0;"/><line style="stroke:#181818;stroke-width:1.0;" x1="0" x2="369" y1="190.9922" y2="190.9922"/><text fill="#000000" font-family="sans-serif" font-size="13" lengthAdjust="spacing" textLength="103" x="7" y="185.9263">new Scheduler()</text><polygon fill="#181818" points="11,200.9922,1,204.9922,11,208.9922,7,204.9922" style="stroke:#181818;stroke-width:1.0;"/><line style="stroke:#181818;stroke-width:1.0;stroke-dasharray:2.0,2.0;" x1="5" x2="374" y1="204.9922" y2="204.9922"/><polygon fill="#181818" points="220,230.125,230,234.125,220,238.125,224,234.125" style="stroke:#181818;stroke-width:1.0;"/><line style="stroke:#181818;stroke-width:1.0;" x1="0" x2="226" y1="234.125" y2="234.125"/><text fill="#000000" font-family="sans-serif" font-size="13" lengthAdjust="spacing" textLength="146" x="7" y="229.0591">new Engine(Scheduler)</text><polygon fill="#181818" points="11,244.125,1,248.125,11,252.125,7,248.125" style="stroke:#181818;stroke-width:1.0;"/><line style="stroke:#181818;stroke-width:1.0;stroke-dasharray:2.0,2.0;" x1="5" x2="231" y1="248.125" y2="248.125"/><polygon fill="#181818" points="536,273.2578,546,277.2578,536,281.2578,540,277.2578" style="stroke:#181818;stroke-width:1.0;"/><line style="stroke:#181818;stroke-width:1.0;" x1="0" x2="542" y1="277.2578" y2="277.2578"/><text fill="#000000" font-family="sans-serif" font-size="13" lengthAdjust="spacing" textLength="142" x="7" y="272.1919">new Player(Scheduler)</text><polygon fill="#181818" points="401,302.3906,391,306.3906,401,310.3906,397,306.3906" style="stroke:#181818;stroke-width:1.0;"/><line style="stroke:#181818;stroke-width:1.0;" x1="395" x2="547" y1="306.3906" y2="306.3906"/><text fill="#000000" font-family="sans-serif" font-size="13" lengthAdjust="spacing" textLength="139" x="407" y="301.3247">scheduler.add(player)</text><polygon fill="#181818" points="536,316.3906,546,320.3906,536,324.3906,540,320.3906" style="stroke:#181818;stroke-width:1.0;"/><line style="stroke:#181818;stroke-width:1.0;stroke-dasharray:2.0,2.0;" x1="385" x2="542" y1="320.3906" y2="320.3906"/><polygon fill="#181818" points="11,330.3906,1,334.3906,11,338.3906,7,334.3906" style="stroke:#181818;stroke-width:1.0;"/><line style="stroke:#181818;stroke-width:1.0;stroke-dasharray:2.0,2.0;" x1="5" x2="547" y1="334.3906" y2="334.3906"/><polygon fill="#181818" points="645,359.5234,655,363.5234,645,367.5234,649,363.5234" style="stroke:#181818;stroke-width:1.0;"/><line style="stroke:#181818;stroke-width:1.0;" x1="0" x2="651" y1="363.5234" y2="363.5234"/><text fill="#000000" font-family="sans-serif" font-size="13" lengthAdjust="spacing" textLength="130" x="7" y="358.4575">new Mob(Scheduler)</text><polygon fill="#181818" points="401,388.6563,391,392.6563,401,396.6563,397,392.6563" style="stroke:#181818;stroke-width:1.0;"/><line style="stroke:#181818;stroke-width:1.0;" x1="395" x2="656" y1="392.6563" y2="392.6563"/><text fill="#000000" font-family="sans-serif" font-size="13" lengthAdjust="spacing" textLength="129" x="407" y="387.5903">scheduler.add(mob)</text><polygon fill="#181818" points="645,402.6563,655,406.6563,645,410.6563,649,406.6563" style="stroke:#181818;stroke-width:1.0;"/><line style="stroke:#181818;stroke-width:1.0;stroke-dasharray:2.0,2.0;" x1="385" x2="651" y1="406.6563" y2="406.6563"/><polygon fill="#181818" points="11,416.6563,1,420.6563,11,424.6563,7,420.6563" style="stroke:#181818;stroke-width:1.0;"/><line style="stroke:#181818;stroke-width:1.0;stroke-dasharray:2.0,2.0;" x1="5" x2="656" y1="420.6563" y2="420.6563"/><rect fill="#EEEEEE" height="3" style="stroke:#EEEEEE;stroke-width:1.0;" width="739" x="0" y="449.2227"/><line style="stroke:#000000;stroke-width:1.0;" x1="0" x2="739" y1="449.2227" y2="449.2227"/><line style="stroke:#000000;stroke-width:1.0;" x1="0" x2="739" y1="452.2227" y2="452.2227"/><rect fill="#EEEEEE" height="23.1328" style="stroke:#000000;stroke-width:2.0;" width="144" x="297.5" y="438.6563"/><text fill="#000000" font-family="sans-serif" font-size="13" font-weight="bold" lengthAdjust="spacing" textLength="125" x="303.5" y="454.7231">Start Game Loop</text><polygon fill="#181818" points="220,488.9219,230,492.9219,220,496.9219,224,492.9219" style="stroke:#181818;stroke-width:1.0;"/><line style="stroke:#181818;stroke-width:1.0;" x1="0" x2="226" y1="492.9219" y2="492.9219"/><text fill="#000000" font-family="sans-serif" font-size="13" lengthAdjust="spacing" textLength="87" x="7" y="487.856">engine.start()</text><polygon fill="#181818" points="11,502.9219,1,506.9219,11,510.9219,7,506.9219" style="stroke:#181818;stroke-width:1.0;"/><line style="stroke:#181818;stroke-width:1.0;stroke-dasharray:2.0,2.0;" x1="5" x2="231" y1="506.9219" y2="506.9219"/><rect fill="#EEEEEE" height="3" style="stroke:#EEEEEE;stroke-width:1.0;" width="739" x="0" y="535.4883"/><line style="stroke:#000000;stroke-width:1.0;" x1="0" x2="739" y1="535.4883" y2="535.4883"/><line style="stroke:#000000;stroke-width:1.0;" x1="0" x2="739" y1="538.4883" y2="538.4883"/><rect fill="#EEEEEE" height="23.1328" style="stroke:#000000;stroke-width:2.0;" width="177" x="281" y="524.9219"/><text fill="#000000" font-family="sans-serif" font-size="13" font-weight="bold" lengthAdjust="spacing" textLength="158" x="287" y="540.9888">Game Loop Mob Turn</text><polygon fill="#181818" points="368,575.1875,378,579.1875,368,583.1875,372,579.1875" style="stroke:#181818;stroke-width:1.0;"/><line style="stroke:#181818;stroke-width:1.0;" x1="247" x2="374" y1="579.1875" y2="579.1875"/><text fill="#000000" font-family="sans-serif" font-size="13" lengthAdjust="spacing" textLength="104" x="254" y="574.1216">scheduler.next()</text><polygon fill="#181818" points="650,604.3203,660,608.3203,650,612.3203,654,608.3203" style="stroke:#181818;stroke-width:1.0;"/><line style="stroke:#181818;stroke-width:1.0;" x1="390" x2="656" y1="608.3203" y2="608.3203"/><text fill="#000000" font-family="sans-serif" font-size="13" lengthAdjust="spacing" textLength="63" x="397" y="603.2544">mob.act()</text><line style="stroke:#181818;stroke-width:1.0;" x1="672" x2="714" y1="637.4531" y2="637.4531"/><line style="stroke:#181818;stroke-width:1.0;" x1="714" x2="714" y1="637.4531" y2="650.4531"/><line style="stroke:#181818;stroke-width:1.0;" x1="673" x2="714" y1="650.4531" y2="650.4531"/><polygon fill="#181818" points="683,646.4531,673,650.4531,683,654.4531,679,650.4531" style="stroke:#181818;stroke-width:1.0;"/><text fill="#000000" font-family="sans-serif" font-size="13" lengthAdjust="spacing" textLength="48" x="679" y="632.3872">do stuff</text><polygon fill="#181818" points="401,660.4531,391,664.4531,401,668.4531,397,664.4531" style="stroke:#181818;stroke-width:1.0;"/><line style="stroke:#181818;stroke-width:1.0;stroke-dasharray:2.0,2.0;" x1="395" x2="656" y1="664.4531" y2="664.4531"/><polygon fill="#181818" points="258,674.4531,248,678.4531,258,682.4531,254,678.4531" style="stroke:#181818;stroke-width:1.0;"/><line style="stroke:#181818;stroke-width:1.0;stroke-dasharray:2.0,2.0;" x1="252" x2="374" y1="678.4531" y2="678.4531"/><rect fill="#EEEEEE" height="3" style="stroke:#EEEEEE;stroke-width:1.0;" width="739" x="0" y="707.0195"/><line style="stroke:#000000;stroke-width:1.0;" x1="0" x2="739" y1="707.0195" y2="707.0195"/><line style="stroke:#000000;stroke-width:1.0;" x1="0" x2="739" y1="710.0195" y2="710.0195"/><rect fill="#EEEEEE" height="23.1328" style="stroke:#000000;stroke-width:2.0;" width="191" x="274" y="696.4531"/><text fill="#000000" font-family="sans-serif" font-size="13" font-weight="bold" lengthAdjust="spacing" textLength="172" x="280" y="712.52">Game Loop Player Turn</text><polygon fill="#181818" points="368,746.7188,378,750.7188,368,754.7188,372,750.7188" style="stroke:#181818;stroke-width:1.0;"/><line style="stroke:#181818;stroke-width:1.0;" x1="247" x2="374" y1="750.7188" y2="750.7188"/><text fill="#000000" font-family="sans-serif" font-size="13" lengthAdjust="spacing" textLength="104" x="254" y="745.6528">scheduler.next()</text><polygon fill="#181818" points="541,775.8516,551,779.8516,541,783.8516,545,779.8516" style="stroke:#181818;stroke-width:1.0;"/><line style="stroke:#181818;stroke-width:1.0;" x1="390" x2="547" y1="779.8516" y2="779.8516"/><text fill="#000000" font-family="sans-serif" font-size="13" lengthAdjust="spacing" textLength="73" x="397" y="774.7856">player.act()</text><polygon fill="#181818" points="263,804.9844,253,808.9844,263,812.9844,259,808.9844" style="stroke:#181818;stroke-width:1.0;"/><line style="stroke:#181818;stroke-width:1.0;" x1="257" x2="552" y1="808.9844" y2="808.9844"/><text fill="#000000" font-family="sans-serif" font-size="13" lengthAdjust="spacing" textLength="82" x="269" y="803.9185">engine.lock()</text><polygon fill="#181818" points="541,818.9844,551,822.9844,541,826.9844,545,822.9844" style="stroke:#181818;stroke-width:1.0;"/><line style="stroke:#181818;stroke-width:1.0;stroke-dasharray:2.0,2.0;" x1="247" x2="547" y1="822.9844" y2="822.9844"/><polygon fill="#181818" points="171,848.1172,161,852.1172,171,856.1172,167,852.1172" style="stroke:#181818;stroke-width:1.0;"/><line style="stroke:#181818;stroke-width:1.0;" x1="165" x2="552" y1="852.1172" y2="852.1172"/><text fill="#000000" font-family="sans-serif" font-size="13" lengthAdjust="spacing" textLength="146" x="177" y="847.0513">input.subscribe(player)</text><polygon fill="#181818" points="541,862.1172,551,866.1172,541,870.1172,545,866.1172" style="stroke:#181818;stroke-width:1.0;"/><line style="stroke:#181818;stroke-width:1.0;stroke-dasharray:2.0,2.0;" x1="155" x2="547" y1="866.1172" y2="866.1172"/><polygon fill="#181818" points="401,876.1172,391,880.1172,401,884.1172,397,880.1172" style="stroke:#181818;stroke-width:1.0;"/><line style="stroke:#181818;stroke-width:1.0;stroke-dasharray:2.0,2.0;" x1="395" x2="547" y1="880.1172" y2="880.1172"/><polygon fill="#181818" points="253,890.1172,243,894.1172,253,898.1172,249,894.1172" style="stroke:#181818;stroke-width:1.0;"/><line style="stroke:#181818;stroke-width:1.0;stroke-dasharray:2.0,2.0;" x1="247" x2="374" y1="894.1172" y2="894.1172"/><ellipse cx="7.5" cy="922.5" fill="none" rx="4" ry="4" style="stroke:#181818;stroke-width:1.5;"/><polygon fill="#181818" points="128,919.25,138,923.25,128,927.25,132,923.25" style="stroke:#181818;stroke-width:1.0;"/><line style="stroke:#181818;stroke-width:1.0;" x1="12" x2="134" y1="923.25" y2="923.25"/><text fill="#000000" font-family="sans-serif" font-size="13" lengthAdjust="spacing" textLength="100" x="15" y="918.1841">bad input event</text><polygon fill="#181818" points="541,948.3828,551,952.3828,541,956.3828,545,952.3828" style="stroke:#181818;stroke-width:1.0;"/><line style="stroke:#181818;stroke-width:1.0;" x1="160" x2="547" y1="952.3828" y2="952.3828"/><text fill="#000000" font-family="sans-serif" font-size="13" lengthAdjust="spacing" textLength="142" x="167" y="947.3169">player.HandleEvent(e)</text><line style="stroke:#181818;stroke-width:1.0;" x1="563" x2="605" y1="981.5156" y2="981.5156"/><line style="stroke:#181818;stroke-width:1.0;" x1="605" x2="605" y1="981.5156" y2="994.5156"/><line style="stroke:#181818;stroke-width:1.0;" x1="564" x2="605" y1="994.5156" y2="994.5156"/><polygon fill="#181818" points="574,990.5156,564,994.5156,574,998.5156,570,994.5156" style="stroke:#181818;stroke-width:1.0;"/><text fill="#000000" font-family="sans-serif" font-size="13" lengthAdjust="spacing" textLength="80" x="570" y="976.4497">ignore event</text><polygon fill="#181818" points="171,1004.5156,161,1008.5156,171,1012.5156,167,1008.5156" style="stroke:#181818;stroke-width:1.0;"/><line style="stroke:#181818;stroke-width:1.0;stroke-dasharray:2.0,2.0;" x1="165" x2="547" y1="1008.5156" y2="1008.5156"/><polygon fill="#181818" points="11,1018.5156,1,1022.5156,11,1026.5156,7,1022.5156" style="stroke:#181818;stroke-width:1.0;"/><line style="stroke:#181818;stroke-width:1.0;stroke-dasharray:2.0,2.0;" x1="5" x2="139" y1="1022.5156" y2="1022.5156"/><ellipse cx="7.5" cy="1050.8984" fill="none" rx="4" ry="4" style="stroke:#181818;stroke-width:1.5;"/><polygon fill="#181818" points="128,1047.6484,138,1051.6484,128,1055.6484,132,1051.6484" style="stroke:#181818;stroke-width:1.0;"/><line style="stroke:#181818;stroke-width:1.0;" x1="12" x2="134" y1="1051.6484" y2="1051.6484"/><text fill="#000000" font-family="sans-serif" font-size="13" lengthAdjust="spacing" textLength="108" x="15" y="1046.5825">good input event</text><polygon fill="#181818" points="541,1076.7813,551,1080.7813,541,1084.7813,545,1080.7813" style="stroke:#181818;stroke-width:1.0;"/><line style="stroke:#181818;stroke-width:1.0;" x1="160" x2="547" y1="1080.7813" y2="1080.7813"/><text fill="#000000" font-family="sans-serif" font-size="13" lengthAdjust="spacing" textLength="142" x="167" y="1075.7153">player.HandleEvent(e)</text><polygon fill="#181818" points="176,1105.9141,166,1109.9141,176,1113.9141,172,1109.9141" style="stroke:#181818;stroke-width:1.0;"/><line style="stroke:#181818;stroke-width:1.0;" x1="170" x2="552" y1="1109.9141" y2="1109.9141"/><text fill="#000000" font-family="sans-serif" font-size="13" lengthAdjust="spacing" textLength="162" x="182" y="1104.8481">input.unsubscribe(player)</text><polygon fill="#181818" points="541,1119.9141,551,1123.9141,541,1127.9141,545,1123.9141" style="stroke:#181818;stroke-width:1.0;"/><line style="stroke:#181818;stroke-width:1.0;stroke-dasharray:2.0,2.0;" x1="160" x2="547" y1="1123.9141" y2="1123.9141"/><line style="stroke:#181818;stroke-width:1.0;" x1="563" x2="605" y1="1153.0469" y2="1153.0469"/><line style="stroke:#181818;stroke-width:1.0;" x1="605" x2="605" y1="1153.0469" y2="1166.0469"/><line style="stroke:#181818;stroke-width:1.0;" x1="564" x2="605" y1="1166.0469" y2="1166.0469"/><polygon fill="#181818" points="574,1162.0469,564,1166.0469,574,1170.0469,570,1166.0469" style="stroke:#181818;stroke-width:1.0;"/><text fill="#000000" font-family="sans-serif" font-size="13" lengthAdjust="spacing" textLength="48" x="570" y="1147.981">do stuff</text><polygon fill="#181818" points="263,1191.1797,253,1195.1797,263,1199.1797,259,1195.1797" style="stroke:#181818;stroke-width:1.0;"/><line style="stroke:#181818;stroke-width:1.0;" x1="257" x2="552" y1="1195.1797" y2="1195.1797"/><text fill="#000000" font-family="sans-serif" font-size="13" lengthAdjust="spacing" textLength="98" x="269" y="1190.1138">engine.unlock()</text><polygon fill="#181818" points="541,1205.1797,551,1209.1797,541,1213.1797,545,1209.1797" style="stroke:#181818;stroke-width:1.0;"/><line style="stroke:#181818;stroke-width:1.0;stroke-dasharray:2.0,2.0;" x1="247" x2="547" y1="1209.1797" y2="1209.1797"/><polygon fill="#181818" points="171,1219.1797,161,1223.1797,171,1227.1797,167,1223.1797" style="stroke:#181818;stroke-width:1.0;"/><line style="stroke:#181818;stroke-width:1.0;stroke-dasharray:2.0,2.0;" x1="165" x2="547" y1="1223.1797" y2="1223.1797"/><polygon fill="#181818" points="11,1233.1797,1,1237.1797,11,1241.1797,7,1237.1797" style="stroke:#181818;stroke-width:1.0;"/><line style="stroke:#181818;stroke-width:1.0;stroke-dasharray:2.0,2.0;" x1="5" x2="139" y1="1237.1797" y2="1237.1797"/><rect fill="#EEEEEE" height="3" style="stroke:#EEEEEE;stroke-width:1.0;" width="739" x="0" y="1265.7461"/><line style="stroke:#000000;stroke-width:1.0;" x1="0" x2="739" y1="1265.7461" y2="1265.7461"/><line style="stroke:#000000;stroke-width:1.0;" x1="0" x2="739" y1="1268.7461" y2="1268.7461"/><rect fill="#EEEEEE" height="23.1328" style="stroke:#000000;stroke-width:2.0;" width="142" x="298.5" y="1255.1797"/><text fill="#000000" font-family="sans-serif" font-size="13" font-weight="bold" lengthAdjust="spacing" textLength="123" x="304.5" y="1271.2466">Stop Game Loop</text><ellipse cx="7.5" cy="1308.6953" fill="none" rx="4" ry="4" style="stroke:#181818;stroke-width:1.5;"/><polygon fill="#181818" points="220,1305.4453,230,1309.4453,220,1313.4453,224,1309.4453" style="stroke:#181818;stroke-width:1.0;"/><line style="stroke:#181818;stroke-width:1.0;" x1="12" x2="226" y1="1309.4453" y2="1309.4453"/><text fill="#000000" font-family="sans-serif" font-size="13" lengthAdjust="spacing" textLength="85" x="15" y="1304.3794">engine.stop()</text><polygon fill="#181818" points="11,1319.4453,1,1323.4453,11,1327.4453,7,1323.4453" style="stroke:#181818;stroke-width:1.0;"/><line style="stroke:#181818;stroke-width:1.0;stroke-dasharray:2.0,2.0;" x1="5" x2="231" y1="1323.4453" y2="1323.4453"/><!--SRC=[hLJ1Zfim4BtxAqRgXHmIvLnjzcPjaOg4nDvoCk2aLbaRWTdkzkixzh341bTHgps1nyypRzuRsohRIIWxyIu7k8eN2PqnFMEz6AngL2-qXLpta_qcTDiXHeoGHxjSNvMMBiwZUDNyaEqq7wcYhRaSniieNfZQ1Gl6JYUiggmIdVejh38QJYV6plj7oB-2bhyYJjcEYSQgLs4bSZi_xFVuyU2Am0kL45aHiY8a9oGraoq70ZmdF2TyINZg98al6K09H6Bys3-8jirwVsY7-m4PW0hsBZ7-jNBDigIg1LL5dP8b2pnR94k-cFelzOfaFRAWicWEFBcf-8vJiNY0Oaalr65qY51L3b-EbsD2jQ06zyblQPtjpzD07lCDVotVR6oSv-xLmBuEk955pIqo8A0rCDhfSg6GInttMp2I8I9OhGZEy_e_775EoEujJUVqF28tGJlJ_FIm0CZzaY_Z4JN0RrdmQYXtBGxZL8_De6ePZ5gGBoUFufXVvkaQEOtoLhqohLxizTaGjrgqn0_agzIMXNmkHySdZnMZwyqTE9CRwSePhAxQ37BE-S4pN_ESNuMegONPrPXFfRRsOzBt7Bcd_gtTOA0tmpFfvFWaxBuxKlyWOwofVpRmpgnU3RDwDaoVxUwz4j7Y3m00]--></g></svg>